# xmcd CD database file
#
# Track frame offsets:
#	183
#	14058
#	33633
#	52308
#	68283
#	89958
#	103983
#	129783
#	142533
#	157908
#
# Disc length: 2418 seconds
#
# Revision: 2
# Processed by: cddbd v1.5PL3 Copyright (c) Steve Scherf et al.
# Submitted via: CDex 1.51
#
DISCID=8509700a
DTITLE=Westernhagen - Lausige Zeiten
DYEAR=1986
DGENRE=Deutsch-Rock
TTITLE0=Lausige Zeiten
TTITLE1=Wir Sitzen Alle In Einem Boot
TTITLE2=Es Tut Weh
TTITLE3=Berlin
TTITLE4=Mir Ist So Heiss
TTITLE5=Kannst Du Mir Vertrauen
TTITLE6=Kein Gefuehl
TTITLE7=Sonntagskind
TTITLE8=Schrei
TTITLE9=Tanz Mit Mir
EXTD=YEAR: 1986
EXTT0=
EXTT1=
EXTT2=
EXTT3=
EXTT4=
EXTT5=
EXTT6=
EXTT7=
EXTT8=
EXTT9=
PLAYORDER=
